<svg xmlns="http://www.w3.org/2000/svg" width="256" height="256"><path fill-opacity=".016" d="M0 128.004v128.004l128.25-.254 128.25-.254.254-127.75L257.008 0H0v128.004m.485.496c0 70.4.119 99.053.265 63.672.146-35.38.146-92.98 0-128C.604 29.153.485 58.1.485 128.5" fill="#1976D2" fill-rule="evenodd"/><path fill-opacity=".119" d="M44.23 2.75c-.284 3.998 1.25 6.038 3.492 4.643 2.246-1.399 2.801-4.058 1.238-5.941-2.027-2.443-4.513-1.761-4.73 1.298M62.2 1.2c-1.58 1.58-1.527 4.284.112 5.644.737.612 6.548 1.214 13.25 1.373C86.739 8.482 87.5 8.628 87.5 10.5c0 1.78-.767 2.033-6.958 2.3-3.827.166-7.545.788-8.263 1.383-2.234 1.855.512 3.817 5.343 3.817 4.268 0 4.379.082 4.4 3.25.028 4.083 2.973 10.569 6.11 13.452C93.064 39.237 96.859 40 114.468 40H131v35h-4.929c-8.759 0-8.209-3.906-7.87 55.87l.299 52.63 2.611 5.567c3.725 7.943 13.944 17.253 16.918 15.415.534-.33.971-.093.971.526 0 .635.795.874 1.821.549 1.587-.504 1.848.097 2.037 4.682.285 6.9.846 8.532 3.193 9.277 1.525.484 1.947 1.53 1.941 4.801l-.008 4.183-8.242.275c-9.145.306-22.55 2.516-29.626 4.885-9.246 3.096-13.766 8.896-9.616 12.34.825.685 1.5.879 1.5.431 0-.447.563-.06 1.25.86 3.445 4.611 24.99 8.694 45.928 8.703 23.509.01 41.066-3.529 47.471-9.569 3.058-2.885 3.288-3.468 2.261-5.723-2.626-5.764-20.701-11.257-39.153-11.898l-8.742-.304-.008-3.856c-.005-2.96.593-4.328 2.575-5.887 2.337-1.839 2.55-2.585 2.25-7.884-.303-5.343-.168-5.801 1.543-5.256 1.353.431 1.655.241 1.086-.68-.561-.908-.308-1.092.875-.638.915.351 1.664.176 1.664-.389 0-.566.45-.75 1-.41s1 .066 1-.608c0-.674.297-.928.66-.565.363.363 1.294-.244 2.069-1.35.774-1.106 1.776-1.783 2.226-1.505.45.278 1.432-.277 2.182-1.233 1.25-1.595 1.198-1.625-.637-.364-1.1.756-.65.113 1-1.43 1.65-1.542 2.887-3.173 2.75-3.624-.138-.452.275-.821.917-.821.641 0 .888-.279.547-.619-.34-.341.07-1.308.911-2.149.842-.842 1.312-2.363 1.046-3.381-.266-1.018-.076-1.851.423-1.851.527 0 .906-16.955.906-40.5V103h2.571c3.36 0 5.748-2.42 4.93-4.997-.49-1.544-1.512-2.003-4.461-2.003-4.002 0-5.793-1.847-3.762-3.878.617-.617 3.459-1.122 6.315-1.122 4.758 0 6.407-.915 6.407-3.556 0-1.022-6.229-3.444-8.857-3.444-2.463 0-2.869-.333-2.433-1.998.287-1.099-.215-3.124-1.117-4.5-1.418-2.165-2.376-2.502-7.116-2.502H165V40l9.75-.015c6.664-.011 9.275-.322 8.25-.985-1.065-.688.169-.974 4.25-.985 3.698-.01 5.75-.43 5.75-1.179 0-.64.948-8.611 2.107-17.714 1.5-11.78 1.787-16.657.994-16.922-.612-.204-.859-.782-.548-1.285C196.469-.567 63.683-.283 62.2 1.2m134.786 85.317c-1.096 1.32-1.053 1.844.254 3.152 1.962 1.961 3.483 1.114 3.267-1.82-.206-2.8-1.801-3.404-3.521-1.332m-34.044 25.431c-4.175 1.267-7.242 3.102-10.734 6.422-1.811 1.721-7.654 6.055-12.984 9.63-13.995 9.386-14.188 9.827-14.202 32.5-.006 9.9.427 19.575.963 21.5 1.361 4.892 6.622 10.917 11.444 13.107 5.51 2.503 16.632 2.503 22.142 0 5.245-2.382 9.945-8.126 11.41-13.946 1.456-5.783 1.248-67.043-.234-68.911-1.095-1.38-3.895-1.488-7.805-.302M140 174c0 .55.45 1 1 1s1-.45 1-1-.45-1-1-1-1 .45-1 1m-6.59 2.375c-1.199 3.123.014 5.125 3.104 5.125 2.651 0 2.986-.336 2.986-3 0-2.531-.431-3.05-2.756-3.317-1.758-.202-2.965.229-3.334 1.192m8.77 7.875c.176 1.238.995 2.25 1.82 2.25.825 0 1.644-1.012 1.82-2.25.245-1.732-.174-2.25-1.82-2.25-1.646 0-2.065.518-1.82 2.25" fill="#1976D2" fill-rule="evenodd"/><path fill-opacity=".24" d="M75.04 1.451c-2.156 2.598-.402 4.329 5.646 5.57 8.314 1.706 8.497 1.79 8.129 3.726-.268 1.411-1.695 1.85-7.324 2.253-6.31.451-7.022.719-7.311 2.75-.286 2.017.102 2.25 3.75 2.25 3.207 0 4.071.371 4.076 1.75.012 3.909 2.279 9.505 5.197 12.828 5.514 6.28 7.17 6.687 26.486 6.51L131 38.93V75h-4.878c-3.181 0-5.324.538-6.161 1.547-1.023 1.233-1.154 9.855-.644 42.364.353 22.448.923 41.55 1.267 42.447.344.897 1.028 1.382 1.521 1.077.492-.304.958.036 1.036.756.293 2.73 1.666-9.981 1.76-16.306.134-8.969 1.775-11.168 14.599-19.565 3.85-2.521 8.868-6.292 11.151-8.381 6.998-6.402 16.343-9.915 20.137-7.57.859.531 1.265 5.613 1.392 17.44.099 9.18.349 14.542.556 11.916.207-2.626.749-4.543 1.206-4.261.457.283 1.426-.202 2.153-1.078.93-1.121 1.434-6.225 1.703-17.239.303-12.388.695-15.892 1.883-16.824 1.965-1.54.879-4.943-1.801-5.644-2.817-.737-2.048-3.932 1.125-4.676 3.238-.759 3.968-4.559 1.053-5.484-1.54-.489-2.058-1.5-2.058-4.015 0-4.74-2.182-6.504-8.048-6.504h-4.906l-.273-17.75-.273-17.75-13.5-.544c-7.425-.3-11.44-.637-8.923-.75 4.377-.197 4.56-.326 4.204-2.956-.205-1.512.527-9.275 1.625-17.25 1.768-12.832 1.827-14.673.511-16-2.265-2.286-71.505-2.804-73.377-.549m-27.58.799c-.371.962-.371 2.537 0 3.5.642 1.667.721 1.667 1.657 0 .643-1.146.643-2.354 0-3.5-.936-1.667-1.015-1.667-1.657 0M197 88c0 1.867.267 2.133 1.2 1.2.933-.933.933-1.467 0-2.4-.933-.933-1.2-.667-1.2 1.2m-54 123.548c0 3.543.542 5.05 2.453 6.82 2.104 1.95 2.494 3.318 2.75 9.623.192 4.766.736 7.494 1.547 7.762.928.307 1.25-1.576 1.25-7.305 0-6.949.249-7.95 2.5-10.036 1.961-1.817 2.5-3.298 2.5-6.864V207h-13v4.548m-11.39 18.189c-2.14.22-4.968 1.106-6.285 1.969-2.288 1.5-2.381 1.995-2.11 11.182.279 9.404.339 9.619 2.785 9.958 1.375.19 3.132.865 3.904 1.5 1.938 1.594 36.577 1.448 45.096-.19 9.109-1.752 18.433-4.922 21.446-7.292 9.41-7.402-6.948-15.908-33.696-17.521l-10.75-.649v5.153c0 2.834-.38 5.153-.845 5.153-1.829 0-4.155-3.822-4.155-6.829V229l-5.75.168c-3.162.093-7.501.348-9.64.569" fill="#1976D2" fill-rule="evenodd"/><path fill-opacity=".429" d="M132 57.5V75h32V40h-32v17.5m12 155.243c0 4.717.273 5.41 2.459 6.241 2.297.874 2.481 1.482 2.796 9.226l.338 8.29.203-8.275c.193-7.822.341-8.327 2.704-9.225 2.24-.851 2.5-1.512 2.5-6.337v-5.386l-5.5.079-5.5.08v5.307m9.647 23.908c-.356 4.208-.647 9.812-.647 12.455 0 4.756.037 4.81 3.738 5.505 5.019.941 21.221-1.046 29.582-3.628 3.723-1.15 8.195-3.365 9.938-4.922 2.862-2.557 3.055-3.079 1.995-5.405-2.218-4.868-13.719-8.777-31.253-10.622-5.225-.55-10.221-1.007-11.103-1.017-1.278-.013-1.735 1.539-2.25 7.634" fill="#1976D2" fill-rule="evenodd"/></svg>