<svg xmlns="http://www.w3.org/2000/svg" width="256" height="256"><path fill-opacity=".016" d="M0 128.004v128.004l128.25-.254 128.25-.254.254-127.75L257.008 0H0v128.004m.485.496c0 70.4.119 99.053.265 63.672.146-35.38.146-92.98 0-128C.604 29.153.485 58.1.485 128.5" fill="#1976D2" fill-rule="evenodd"/><path fill-opacity=".454" d="M45.5 1.017C25.155 5.073 9.42 19.295 2.372 40 .602 45.2.5 50.002.5 128s.102 82.8 1.872 88c6.707 19.703 21.863 34.015 40.731 38.463 9.61 2.265 161.571 2.279 170.437.015 10.309-2.632 18.294-7.215 26.008-14.93 8.028-8.027 12.208-15.557 15.42-27.78 1.959-7.454 2.032-10.525 2.032-85.75 0-44.683-.379-78.018-.886-78.018-.488 0-1.191-2.029-1.563-4.509-.372-2.481-2.512-8.178-4.757-12.662-5.165-10.32-13.513-18.879-23.537-24.134C213.403-.043 214.416.024 127.5.127c-42.9.051-79.8.451-82 .89m1.832 36.561c-.333.867.131 2.314 1.031 3.214 1.516 1.515 1.758 1.515 3.274 0C53.681 38.747 52.743 36 50 36c-1.135 0-2.335.71-2.668 1.578m14.025-.065c-1.257 3.275 1.51 4.407 11.486 4.702 9.63.284 13.498 2.029 5.657 2.552-6.188.412-8.5 1.144-8.5 2.692 0 .918 1.321 1.53 3.738 1.731 3.483.289 3.781.571 4.353 4.125.78 4.835 3.601 8.7 7.98 10.933 2.711 1.383 5.993 1.749 15.679 1.75L114 66V92.879l-3.75.311-3.75.31-.641 6c-1.008 9.423-.922 67.287.11 74.426 1.215 8.409 4.897 13.595 12.41 17.482 5.277 2.731 5.621 3.133 5.621 6.576 0 2.6.714 4.338 2.452 5.971 1.842 1.73 2.543 3.579 2.815 7.424l.363 5.121.185-5.509c.144-4.301.624-5.784 2.185-6.759 1.52-.949 2-2.332 2-5.765 0-4.005.311-4.635 2.746-5.56 4.244-1.614 8.83-5.487 11.409-9.636 2.304-3.705 2.354-4.341 2.845-36.271l.5-32.5 3.491-.331c6.675-.634 5.698-5.169-1.113-5.169-2.78 0-3.878-.425-3.878-1.5 0-1.096 1.145-1.504 4.25-1.514 6.055-.019 8.75-.942 8.75-2.996 0-2.216-1.945-2.99-7.518-2.99-4.183 0-4.368-.129-4.669-3.25-.294-3.051-.574-3.269-4.563-3.557l-4.25-.308V66h12.852c11.682 0 13.153-.205 16.158-2.25 5.233-3.561 7.209-6.927 7.292-12.419.087-5.802-2.387-10.593-6.92-13.4-2.979-1.845-5.495-1.931-56.281-1.931-46.533 0-53.236.189-53.744 1.513M.476 128c0 43.725.123 61.612.274 39.75.15-21.863.15-57.638 0-79.5C.599 66.387.476 84.275.476 128m164.97-25.913c-.369.598-.21 1.549.354 2.113 1.262 1.262 3.2.196 3.2-1.759 0-1.684-2.574-1.94-3.554-.354m-28.091 21.337c-1.729.765-4.879 2.934-7 4.82-2.12 1.886-6.641 5.301-10.047 7.59-9.397 6.316-9.308 6.078-9.308 24.741 0 15.08.146 16.344 2.25 19.435 4.114 6.045 7.056 7.49 15.25 7.49 8.201 0 11.135-1.444 15.266-7.513 2.234-3.284 2.262-3.703 2-30.408L145.5 122.5l-2.5-.233c-1.375-.129-3.915.392-5.645 1.157m-19.654 48.208c-.385.386-.701 1.558-.701 2.604 0 1.402.593 1.819 2.25 1.584 1.471-.209 2.25-1.008 2.25-2.306 0-1.984-2.472-3.208-3.799-1.882m5.745 5.455c-1.03 1.668 1.287 3.58 2.667 2.2 1.154-1.154.432-3.287-1.113-3.287-.485 0-1.184.489-1.554 1.087m-15.455 35.453c-22.65 4.104-23.5 12.382-1.733 16.878 9.918 2.049 33.799 2.111 44.228.116 13.736-2.628 20.107-8.134 14.024-12.119-4.069-2.666-15.149-5.388-24.76-6.082l-8.75-.632v4.304c0 4.293-.006 4.3-2.074 2.428-1.32-1.195-1.916-2.705-1.639-4.155.416-2.177.165-2.274-5.676-2.188-3.361.049-9.49.702-13.62 1.45" fill="#1976D2" fill-rule="evenodd"/><path fill-opacity=".088" d="M66.776 42.733c2.352.212 5.952.209 8-.006s.124-.388-4.276-.384c-4.4.003-6.076.179-3.724.39m5.974 1.973c1.237.238 3.263.238 4.5 0 1.237-.239.225-.434-2.25-.434s-3.487.195-2.25.434m-1 5.956c.688.278 1.813.278 2.5 0 .688-.277.125-.504-1.25-.504s-1.937.227-1.25.504M247 118.5c-2.475.717-3.637 1.348-2.583 1.402 2.494.128 1.818.652-1.917 1.488-2.191.49-2.595.397-1.5-.344.825-.559 1.05-1.006.5-.995-1.405.028-6.221 2.864-5 2.944.55.036.209.526-.758 1.09-.967.563-2.274.704-2.904.315-.76-.47-.871-.263-.328.615.599.97.358 1.149-.898.666-.944-.362-1.482-.279-1.195.184.286.464-.619 1.362-2.012 1.996-2.003.913-2.377.891-1.789-.103.409-.692-.642.205-2.337 1.992-3.137 3.309-4.918 4.258-3.751 2 .355-.687-.333-.125-1.528 1.25s-1.875 1.825-1.511 1c.365-.825-.177-.554-1.204.602-1.026 1.157-4.998 4.054-8.826 6.439-3.827 2.385-9.702 6.338-13.055 8.784-5.944 4.336-10.034 6.664-31.154 17.736L153 172.934l-.127-3.217c-.071-1.819-.476-.537-.93 2.947-.442 3.391-1.51 7.532-2.375 9.204-2.07 4.003-7.924 9.623-11.618 11.153-2.536 1.05-2.95 1.756-2.95 5.028 0 2.869-.616 4.29-2.5 5.772-2.335 1.837-3.802 8.102-1.575 6.725 1.533-.947 19.925 1.463 26.296 3.446 10.633 3.309 13.046 8.3 5.8 11.997-7.847 4.004-16.514 5.393-34.021 5.454-18.267.063-29.157-1.727-35.173-5.781-9.42-6.348.266-12.492 23.423-14.859 9.925-1.015 10.75-1.261 10.75-3.211 0-1.161-.9-2.673-2-3.36-1.5-.937-2-2.332-2-5.582 0-4.146-.163-4.382-3.775-5.464-2.076-.623-5.743-3.056-8.149-5.409-2.611-2.553-3.726-3.266-2.767-1.767 1.632 2.55 1.203 4.409-1.059 4.59-3.826.306-4.314.487-3.757 1.389.35.566-.051.734-.941.393-.854-.328-1.552-.112-1.552.48s-.748.788-1.664.437c-1.208-.464-1.44-.276-.846.686.521.842.431 1.084-.247.665-1.162-.718-7.226 2.348-7.237 3.659-.003.445-.425.55-.937.233-1.242-.767-8.125 2.559-7.474 3.611.28.453-.263.528-1.207.166-1.157-.444-1.483-.281-1 .5.482.78.156.943-1 .5-1.256-.483-1.497-.304-.898.666.529.855.431 1.084-.275.648-.602-.372-2.553.21-4.334 1.293-1.782 1.084-3.679 1.699-4.215 1.368-.585-.362-.647-.073-.156.721.613.993.346 1.144-1.065.602-1.036-.397-1.563-.401-1.17-.009.393.393-.971 1.85-3.03 3.238-4.812 3.241-19.016 15.116-22.186 18.548-2.487 2.691-4.004 7.308-1.994 6.066.589-.364.792-1.391.45-2.281-.341-.89-.301-1.298.09-.907s1.41.152 2.264-.531c.854-.682.537.208-.705 1.979-2.39 3.41-5.035 5.663-3.738 3.185.754-1.441-2.744 2.287-5.426 5.782-2.142 2.791-2.572 5.033-.662 3.447 1.141-.946 1.44-.929 1.399.081-.029.707.019 2.159.105 3.226.156 1.922.173 1.922 1.626 0 1.306-1.726 1.472-1.75 1.5-.222.021 1.111.562 1.515 1.532 1.143.977-.375 1.5.027 1.5 1.153 0 1.322.312 1.471 1.324.631.965-.801 1.635-.787 2.472.05.632.632 2.399 1.357 3.926 1.611 1.528.255 37.42.633 79.761.84 74.297.365 77.258.308 84.873-1.618 10.283-2.6 19.02-7.575 26.417-15.041 7.164-7.231 11.589-15.175 14.252-25.584 1.818-7.109 1.975-11.177 1.975-51.125v-43.402l-4.75.541-4.75.541 5-1.361c2.975-.809 3.987-1.369 2.5-1.381-1.375-.011-4.525.566-7 1.283m-101.921 54.083c.048 1.165.285 1.402.604.605.289-.722.253-1.585-.079-1.917-.332-.332-.568.258-.525 1.312m-1 3.726c-.043.995-.539 1.525-1.101 1.177-.563-.347-5.303 1.077-10.534 3.166-7.231 2.887-9.085 3.988-7.728 4.592 1.102.491.446.596-1.716.277-2.508-.371-3.075-.239-2 .465 2.38 1.56 12.834 1.187 16.583-.592 3.612-1.715 7.914-7.576 7.079-9.646-.292-.722-.537-.485-.583.561m-25.266 1.374c.721.289 1.584.253 1.916-.079.332-.332-.258-.568-1.312-.525-1.165.048-1.402.285-.604.604M68.872 211.75c-1.243 1.586-1.208 1.621.378.378 1.666-1.307 2.195-2.128 1.372-2.128-.207 0-.995.787-1.75 1.75m-4 3c-1.243 1.586-1.208 1.621.378.378 1.666-1.307 2.195-2.128 1.372-2.128-.207 0-.995.787-1.75 1.75m-25.926 14L35.5 232.5l3.566-3.268c1.961-1.797 3.946-2.922 4.41-2.5.465.423.521.206.125-.482-.952-1.654-.725-1.776-4.655 2.5m-4.541 7.5L32.5 238.5l2.25-1.905c2.114-1.79 2.705-2.595 1.905-2.595-.19 0-1.202 1.012-2.25 2.25m-2 6L30.5 244.5l2.25-1.905c2.114-1.79 2.705-2.595 1.905-2.595-.19 0-1.202 1.012-2.25 2.25m-4.852-.335a1.116 1.116 0 00.362 1.532c.521.322 1.21.159 1.532-.362a1.116 1.116 0 00-.362-1.532 1.116 1.116 0 00-1.532.362" fill="#1976D2" fill-rule="evenodd"/><path fill-opacity=".376" d="M228.596 176.557c-7.098 1.304-13.285 2.135-13.75 1.848-.465-.288-.846-.077-.846.469 0 .546-1.238.963-2.75.928-1.512-.036-5.949.894-9.858 2.066-3.909 1.173-8.001 2.132-9.093 2.132-1.092 0-4.516.871-7.609 1.935s-7.075 2.163-8.849 2.443c-5.168.814-17.055 7.17-25.894 13.843-6.783 5.122-7.857 6.298-6.311 6.906 1.483.583 1.252.772-1.136.925-1.856.119-.726.523 2.961 1.06 9.446 1.376 16.333 3.732 19.696 6.737 2.774 2.478 2.979 3.028 1.892 5.06-2.757 5.15-19.05 8.976-39.43 9.259-9.955.138-11.048.287-6.119.832 3.3.365 5.224.739 4.276.832-2.925.285-7.733 12.311-7.764 19.418L118 256h42.542c47.141 0 52.332-.502 64.458-6.236 4.579-2.165 8.728-5.317 14.04-10.669 13.023-13.118 16.96-24.854 16.96-50.553V174l-7.25.094c-3.988.051-13.057 1.16-20.154 2.463m-95.846 33.149c1.238.238 3.262.238 4.5 0 1.238-.239.225-.434-2.25-.434s-3.488.195-2.25.434m-21.937 21.977c.721.289 1.584.253 1.916-.079.332-.332-.258-.568-1.312-.525-1.165.048-1.402.285-.604.604" fill="#1976D2" fill-rule="evenodd"/></svg>